<svg width="19" height="22" viewBox="0 0 19 22" fill="none" xmlns="http://www.w3.org/2000/svg">
<path d="M12.0115 21V17C12.1506 15.7473 11.7914 14.4901 11.0115 13.5C14.0115 13.5 17.0115 11.5 17.0115 8C17.0915 6.75 16.7415 5.52 16.0115 4.5C16.2915 3.35 16.2915 2.15 16.0115 1C16.0115 1 15.0115 1 13.0115 2.5C10.3715 2 7.65151 2 5.01151 2.5C3.01151 1 2.01151 1 2.01151 1C1.71151 2.15 1.71151 3.35 2.01151 4.5C1.28339 5.51588 0.929984 6.75279 1.01151 8C1.01151 11.5 4.01151 13.5 7.01151 13.5C6.62151 13.99 6.33151 14.55 6.16151 15.15C5.99151 15.75 5.94151 16.38 6.01151 17V21" stroke="#4B5563" stroke-width="2" stroke-linecap="round" stroke-linejoin="round"/>
</svg>
